<?xml version="1.0" encoding="UTF-8" standalone="no"?>
<!-- Created with Inkscape (http://www.inkscape.org/) -->

<svg
   width="210mm"
   height="297mm"
   viewBox="0 0 793.70081 1122.5197"
   version="1.1"
   id="svg5"
   sodipodi:docname="wordMe.svg"
   inkscape:version="1.1 (c68e22c387, 2021-05-23)"
   xmlns:inkscape="http://www.inkscape.org/namespaces/inkscape"
   xmlns:sodipodi="http://sodipodi.sourceforge.net/DTD/sodipodi-0.dtd"
   xmlns="http://www.w3.org/2000/svg"
   xmlns:svg="http://www.w3.org/2000/svg">
  <sodipodi:namedview
     id="namedview7"
     pagecolor="#505050"
     bordercolor="#ffffff"
     borderopacity="1"
     inkscape:pageshadow="0"
     inkscape:pageopacity="0"
     inkscape:pagecheckerboard="1"
     inkscape:document-units="px"
     showgrid="false"
     inkscape:zoom="2"
     inkscape:cx="34.25"
     inkscape:cy="125.25"
     inkscape:window-width="1920"
     inkscape:window-height="1017"
     inkscape:window-x="-8"
     inkscape:window-y="-8"
     inkscape:window-maximized="1"
     inkscape:current-layer="layer1"
     inkscape:lockguides="false"
     showguides="false"
     scale-x="1" />
  <defs
     id="defs2">
    <rect
       x="-559.10114"
       y="230.98001"
       width="97.141121"
       height="62.602058"
       id="rect9697" />
  </defs>
  <g
     inkscape:label="Layer 1"
     inkscape:groupmode="layer"
     id="layer1">
    <g
       aria-label="Me"
       transform="matrix(0.87712756,0,0,0.83843377,491.1293,-199.59199)"
       id="text9695"
       style="font-weight:bold;font-size:53.3333px;font-family:'Snap ITC';-inkscape-font-specification:'Snap ITC Bold';white-space:pre;fill:none;stroke:#282c34;stroke-width:1.54265;stroke-linecap:round;stroke-linejoin:round">
      <path
         style="color:#000000;-inkscape-font-specification:'Snap ITC Bold';fill:#282c34;stroke:none;stroke-linecap:butt;stroke-linejoin:miter;-inkscape-stroke:none"
         d="m -532.37109,238.83398 -24.58399,2.9961 a 0.77140212,0.77140212 0 0 0 -0.2207,1.4707 l 5.34961,2.37695 -2.87305,28.29297 -4.13281,2.35547 a 0.77140212,0.77140212 0 0 0 0.3125,1.4375 l 29.32422,2.60547 a 0.77140212,0.77140212 0 0 0 0.39258,-1.46875 l -8.00586,-3.70508 -3.18555,-22.21484 7.77148,16.66015 a 0.77140212,0.77140212 0 0 0 1.35938,0.0742 l 9.23047,-15.21484 -3.95703,18.32227 -5.40039,3.0332 a 0.77140212,0.77140212 0 0 0 0.35156,1.44336 l 31.35351,1.11914 a 0.77140212,0.77140212 0 0 0 0.41016,-1.44141 l -6.58398,-3.76172 -2.89063,-27.64453 6.61133,-2.29883 a 0.77140212,0.77140212 0 0 0 -0.20899,-1.49804 l -23.82812,-1.38086 a 0.77140212,0.77140212 0 0 0 -0.79297,0.58398 l -2.37891,9.56641 -2.58007,-11.11719 a 0.77140212,0.77140212 0 0 0 -0.84375,-0.5918 z m -0.50196,1.61524 3.15039,13.57031 a 0.77140212,0.77140212 0 0 0 1.5,0.0117 l 2.9961,-12.06055 19.31836,1.11719 -3.52539,1.22656 a 0.77140212,0.77140212 0 0 0 -0.51368,0.8086 l 2.9961,28.64648 a 0.77140212,0.77140212 0 0 0 0.38281,0.58984 l 4.21289,2.40625 -25.48437,-0.9121 3.30859,-1.85743 a 0.77140212,0.77140212 0 0 0 0.37695,-0.50976 l 5,-23.15039 a 0.77140212,0.77140212 0 0 0 -1.41406,-0.5625 l -10.86719,17.90625 -9.36328,-20.07227 a 0.77140212,0.77140212 0 0 0 -1.46289,0.43555 l 3.98438,27.78711 a 0.77140212,0.77140212 0 0 0 0.43945,0.58984 l 4.36523,2.01953 -22.45507,-1.99218 2.33789,-1.33399 a 0.77140212,0.77140212 0 0 0 0.38672,-0.5918 l 2.96875,-29.24414 a 0.77140212,0.77140212 0 0 0 -0.45508,-0.7832 l -3.3086,-1.4707 z"
         id="path932" />
      <path
         style="color:#000000;-inkscape-font-specification:'Snap ITC Bold';fill:#282c34;stroke:none;stroke-linecap:butt;stroke-linejoin:miter;-inkscape-stroke:none"
         d="m -484.10156,249.60937 c -2.28786,0 -4.40877,0.3719 -6.34571,1.1211 a 0.77140212,0.77140212 0 0 0 -0.002,0 c -1.91942,0.74948 -3.62237,1.8626 -5.08398,3.32422 -1.51325,1.51325 -2.69223,3.29676 -3.52735,5.33008 a 0.77140212,0.77140212 0 0 0 0,0.004 c -0.8176,2.01677 -1.22851,4.12494 -1.22851,6.30469 0,4.12898 1.55975,7.57087 4.60156,10.09961 a 0.77140212,0.77140212 0 0 0 0.004,0.002 c 3.06097,2.5111 7.1146,3.74414 12.05078,3.74414 2.53951,0 5.0058,-0.36894 7.38867,-1.10351 2.13966,-0.6596 4.26889,-1.67301 6.39062,-2.94336 l 1.97461,3.64258 a 0.77140212,0.77140212 0 0 0 1.44727,-0.42969 l -0.96289,-11.90235 a 0.77140212,0.77140212 0 0 0 -1.39844,-0.38281 c -1.15407,1.63219 -2.5179,2.85385 -4.10742,3.69727 -1.58912,0.84321 -3.3213,1.26367 -5.23828,1.26367 -1.58501,0 -3.12097,-0.24742 -4.62305,-0.74219 -9.9e-4,-3.4e-4 -0.003,3.4e-4 -0.004,0 -0.0576,-0.0199 -0.12003,-0.073 -0.17774,-0.0937 0.0412,2.6e-4 0.0757,0.01 0.11719,0.01 3.92784,0 7.27324,-0.97977 9.93945,-2.96485 l 0.002,-0.002 c 2.67964,-1.98308 4.11133,-4.58614 4.11133,-7.59766 0,-3.0159 -1.56646,-5.59532 -4.45898,-7.51757 -2.89487,-1.9238 -6.5393,-2.86328 -10.86914,-2.86329 z m 0,1.54297 c 4.10765,0 7.42439,0.88345 10.01562,2.60547 2.59358,1.72359 3.76953,3.7275 3.76953,6.23242 0,2.54316 -1.09997,4.59268 -3.48828,6.35938 a 0.77140212,0.77140212 0 0 0 -0.002,0.002 c -2.36816,1.76388 -5.34425,2.66016 -9.01953,2.66016 -0.89377,0 -1.72057,-0.0662 -2.48438,-0.19531 -0.001,-2.8e-4 -0.002,-0.002 -0.004,-0.002 -0.76897,-0.14752 -1.50203,-0.35836 -2.20117,-0.63476 a 0.77140212,0.77140212 0 0 0 -0.71875,1.35547 c 0.0514,0.035 0.10103,0.0437 0.15234,0.0781 l -0.002,0.002 c 0.004,0.002 0.008,0.002 0.0117,0.004 1.62259,1.08769 3.22712,1.93439 4.8125,2.48047 a 0.77140212,0.77140212 0 0 0 0.01,0.004 c 1.65646,0.54608 3.36432,0.82031 5.11133,0.82031 2.14552,0 4.14728,-0.48101 5.96094,-1.44336 1.27765,-0.67794 2.37692,-1.65034 3.39062,-2.75195 l 0.52344,6.46093 -0.60352,-1.11328 a 0.77140212,0.77140212 0 0 0 -1.08984,-0.28515 c -2.25878,1.4266 -4.50571,2.48243 -6.74219,3.17187 -2.23517,0.68904 -4.54255,1.0332 -6.93359,1.0332 -4.67996,0 -8.33305,-1.14658 -11.07031,-3.39062 -2.72207,-2.26292 -4.04297,-5.15917 -4.04297,-8.91211 0,-1.98692 0.37034,-3.88722 1.11523,-5.72461 0.76204,-1.85451 1.82139,-3.4542 3.18945,-4.82227 1.31576,-1.31575 2.82507,-2.30441 4.55079,-2.97851 1.7436,-0.67442 3.6672,-1.01563 5.78906,-1.01563 z m -1.28516,2.42383 c -1.96372,0.29364 -3.68451,0.97383 -5.11523,2.04688 -1.41424,1.05628 -2.52262,2.49389 -3.31446,4.26172 a 0.77140212,0.77140212 0 0 0 0.21875,0.9121 c 0.63045,0.51224 1.36435,0.91275 2.18555,1.19922 a 0.77140212,0.77140212 0 0 0 0.0137,0.004 c 0.82184,0.26757 1.67002,0.40234 2.53125,0.40234 1.52124,0 2.86384,-0.46474 3.88086,-1.40039 1.01562,-0.93437 1.55274,-2.21208 1.55274,-3.64062 0,-0.6811 -0.0988,-1.31842 -0.30664,-1.90039 -0.20668,-0.5787 -0.52634,-1.12074 -0.94336,-1.61719 a 0.77140212,0.77140212 0 0 0 -0.70313,-0.26758 z m -0.24609,1.65235 c 0.16392,0.24759 0.34721,0.49172 0.43945,0.75 0.13937,0.39023 0.2168,0.84863 0.2168,1.38281 0,1.07145 -0.33225,1.84105 -1.05274,2.5039 -0.7191,0.66157 -1.61607,0.99415 -2.83789,0.99414 -0.69855,0 -1.37623,-0.10737 -2.04492,-0.32421 -0.4448,-0.15585 -0.78216,-0.39837 -1.14062,-0.62305 0.65899,-1.25011 1.45707,-2.29298 2.47461,-3.05274 a 0.77140212,0.77140212 0 0 0 0.002,-0.002 c 1.08974,-0.81731 2.41512,-1.3352 3.94336,-1.6289 z"
         id="path934" />
    </g>
  </g>
</svg>
